<svg width="137" height="35" viewBox="0 0 137 35" fill="none" xmlns="http://www.w3.org/2000/svg">
<path d="M46.2085 19.7886C46.2085 19.0698 45.9539 18.5158 45.4448 18.1265C44.9432 17.7371 44.0335 17.3441 42.7158 16.9473C41.3981 16.5505 40.3499 16.1087 39.5713 15.6221C38.0814 14.6862 37.3364 13.4658 37.3364 11.9609C37.3364 10.6432 37.8717 9.55762 38.9424 8.7041C40.0205 7.85059 41.4168 7.42383 43.1313 7.42383C44.2694 7.42383 45.2839 7.63346 46.1748 8.05273C47.0658 8.47201 47.7658 9.07096 48.2749 9.84961C48.784 10.6208 49.0386 11.478 49.0386 12.4214H46.2085C46.2085 11.5679 45.939 10.9015 45.3999 10.4224C44.8683 9.93571 44.1047 9.69238 43.1089 9.69238C42.1805 9.69238 41.458 9.89079 40.9414 10.2876C40.4323 10.6844 40.1777 11.2384 40.1777 11.9497C40.1777 12.5487 40.4548 13.0503 41.0088 13.4546C41.5628 13.8514 42.4762 14.2407 43.749 14.6226C45.0218 14.9969 46.0438 15.4274 46.8149 15.9141C47.5861 16.3932 48.1514 16.9473 48.5107 17.5762C48.8701 18.1976 49.0498 18.9276 49.0498 19.7661C49.0498 21.1287 48.5257 22.2144 47.4775 23.0229C46.4368 23.8241 45.0218 24.2246 43.2324 24.2246C42.0495 24.2246 40.9601 24.0075 39.9644 23.5732C38.9761 23.1315 38.2049 22.5251 37.6509 21.7539C37.1043 20.9827 36.8311 20.0843 36.8311 19.0586H39.6724C39.6724 19.987 39.9793 20.7057 40.5933 21.2148C41.2072 21.724 42.0869 21.9785 43.2324 21.9785C44.2207 21.9785 44.9619 21.7801 45.4561 21.3833C45.9577 20.979 46.2085 20.4474 46.2085 19.7886ZM63.3574 9.93945H58.2588V24H55.4399V9.93945H50.3862V7.64844H63.3574V9.93945ZM73.3188 20.1929H66.9849L65.6597 24H62.7061L68.8828 7.64844H71.4321L77.6201 24H74.6553L73.3188 20.1929ZM67.7822 17.9019H72.5215L70.1519 11.1187L67.7822 17.9019ZM91.7144 18.6768C91.5496 20.4212 90.9058 21.7839 89.7827 22.7646C88.6597 23.738 87.166 24.2246 85.3018 24.2246C83.999 24.2246 82.8498 23.9176 81.854 23.3037C80.8657 22.6823 80.1021 21.8026 79.563 20.6646C79.0239 19.5265 78.7432 18.2051 78.7207 16.7002V15.1729C78.7207 13.6305 78.994 12.2716 79.5405 11.0962C80.0871 9.92074 80.8695 9.01481 81.8877 8.37842C82.9134 7.74202 84.0964 7.42383 85.4365 7.42383C87.2409 7.42383 88.6934 7.91423 89.7939 8.89502C90.8945 9.87581 91.5347 11.2609 91.7144 13.0503H88.8843C88.7495 11.8748 88.4051 11.0288 87.8511 10.5122C87.3045 9.98812 86.4997 9.72607 85.4365 9.72607C84.2012 9.72607 83.2503 10.179 82.584 11.085C81.9251 11.9834 81.5882 13.3049 81.5732 15.0493V16.498C81.5732 18.265 81.8877 19.6126 82.5166 20.541C83.153 21.4694 84.0814 21.9336 85.3018 21.9336C86.4173 21.9336 87.2559 21.6828 87.8174 21.1812C88.3789 20.6795 88.7345 19.8447 88.8843 18.6768H91.7144ZM98.958 16.936L97.105 18.9014V24H94.2637V7.64844H97.105V15.3188L98.6772 13.376L103.461 7.64844H106.898L100.822 14.8921L107.246 24H103.877L98.958 16.936ZM118.274 24H114.344V7.64844H118.274V24ZM133.514 10.6919H128.606V24H124.665V10.6919H119.847V7.64844H133.514V10.6919Z" fill="white"/>
<rect x="16.728" y="5" width="18" height="18" transform="rotate(45 16.728 5)" fill="white"/>
<g filter="url(#filter0_d)">
<rect x="16.728" width="18" height="18" transform="rotate(45 16.728 0)" fill="white"/>
</g>
<defs>
<filter id="filter0_d" x="0" y="0" width="33.4558" height="33.4558" filterUnits="userSpaceOnUse" color-interpolation-filters="sRGB">
<feFlood flood-opacity="0" result="BackgroundImageFix"/>
<feColorMatrix in="SourceAlpha" type="matrix" values="0 0 0 0 0 0 0 0 0 0 0 0 0 0 0 0 0 0 127 0"/>
<feOffset dy="4"/>
<feGaussianBlur stdDeviation="2"/>
<feColorMatrix type="matrix" values="0 0 0 0 0 0 0 0 0 0 0 0 0 0 0 0 0 0 0.1 0"/>
<feBlend mode="normal" in2="BackgroundImageFix" result="effect1_dropShadow"/>
<feBlend mode="normal" in="SourceGraphic" in2="effect1_dropShadow" result="shape"/>
</filter>
</defs>
</svg>
