<svg width="24" height="24" viewBox="0 0 24 24" fill="none" xmlns="http://www.w3.org/2000/svg">
<circle cx="12" cy="12" r="10" fill="white"/>
<path d="M14.5 10.3335C14.5 9.67045 14.2366 9.03457 13.7678 8.56573C13.2989 8.09689 12.663 7.8335 12 7.8335C11.337 7.8335 10.7011 8.09689 10.2322 8.56573C9.76339 9.03457 9.5 9.67045 9.5 10.3335C9.5 13.2502 8.25 14.0835 8.25 14.0835H15.75C15.75 14.0835 14.5 13.2502 14.5 10.3335Z" stroke="black" stroke-linecap="round" stroke-linejoin="round"/>
<path d="M12.721 15.75C12.6477 15.8763 12.5426 15.9811 12.4161 16.054C12.2896 16.1268 12.1461 16.1652 12.0001 16.1652C11.8541 16.1652 11.7107 16.1268 11.5842 16.054C11.4577 15.9811 11.3526 15.8763 11.2793 15.75" stroke="black" stroke-linecap="round" stroke-linejoin="round"/>
</svg>
